<svg width="24" height="24" viewBox="0 0 24 24" fill="none" xmlns="http://www.w3.org/2000/svg">
<path d="M15.986 4C15.9245 3.44999 15.6625 2.94194 15.25 2.57297C14.8375 2.20401 14.3034 2.00002 13.75 2H10.25C9.69656 2.00002 9.16254 2.20401 8.75004 2.57297C8.33754 2.94194 8.07549 3.44999 8.014 4H6.25C5.65326 4 5.08097 4.23705 4.65901 4.65901C4.23705 5.08097 4 5.65326 4 6.25V10.1C4.47254 9.85798 4.97786 9.68617 5.5 9.59V6.25C5.5 6.05109 5.57902 5.86032 5.71967 5.71967C5.86032 5.57902 6.05109 5.5 6.25 5.5H8.379C8.783 6.103 9.47 6.5 10.25 6.5H13.75C14.53 6.5 15.217 6.103 15.621 5.5H17.75C17.9489 5.5 18.1397 5.57902 18.2803 5.71967C18.421 5.86032 18.5 6.05109 18.5 6.25V19.75C18.5 19.9489 18.421 20.1397 18.2803 20.2803C18.1397 20.421 17.9489 20.5 17.75 20.5H13.832C13.9428 20.7345 14.0003 20.9906 14.0003 21.25C14.0003 21.5094 13.9428 21.7655 13.832 22H17.75C18.0455 22 18.3381 21.9418 18.611 21.8287C18.884 21.7157 19.1321 21.5499 19.341 21.341C19.5499 21.1321 19.7157 20.884 19.8287 20.611C19.9418 20.3381 20 20.0455 20 19.75V6.25C20 5.95453 19.9418 5.66194 19.8287 5.38896C19.7157 5.11598 19.5499 4.86794 19.341 4.65901C19.1321 4.45008 18.884 4.28434 18.611 4.17127C18.3381 4.0582 18.0455 4 17.75 4H15.986ZM15.995 4.096L16 4.25C16 4.198 15.998 4.147 15.995 4.096V4.096ZM10.25 3.5H13.75C13.9489 3.5 14.1397 3.57902 14.2803 3.71967C14.421 3.86032 14.5 4.05109 14.5 4.25C14.5 4.44891 14.421 4.63968 14.2803 4.78033C14.1397 4.92098 13.9489 5 13.75 5H10.25C10.0511 5 9.86032 4.92098 9.71967 4.78033C9.57902 4.63968 9.5 4.44891 9.5 4.25C9.5 4.05109 9.57902 3.86032 9.71967 3.71967C9.86032 3.57902 10.0511 3.5 10.25 3.5ZM9.95 17.89C10.6741 17.0249 11.0469 15.9195 10.9945 14.7925C10.9421 13.6656 10.4684 12.5995 9.66712 11.8054C8.86585 11.0112 7.79553 10.547 6.6682 10.5047C5.54086 10.4624 4.43875 10.845 3.5802 11.5769C2.72165 12.3087 2.16929 13.3363 2.03256 14.4561C1.89583 15.5759 2.18469 16.7063 2.84193 17.6232C3.49916 18.5401 4.47682 19.1767 5.58122 19.4069C6.68562 19.637 7.83619 19.444 8.805 18.866L11.72 21.78C11.7887 21.8537 11.8715 21.9128 11.9635 21.9538C12.0555 21.9948 12.1548 22.0168 12.2555 22.0186C12.3562 22.0204 12.4562 22.0018 12.5496 21.9641C12.643 21.9264 12.7278 21.8703 12.799 21.799C12.8703 21.7278 12.9264 21.643 12.9641 21.5496C13.0018 21.4562 13.0204 21.3562 13.0186 21.2555C13.0168 21.1548 12.9948 21.0555 12.9538 20.9635C12.9128 20.8715 12.8537 20.7887 12.78 20.72L9.95 17.89ZM6.5 18C5.70435 18 4.94129 17.6839 4.37868 17.1213C3.81607 16.5587 3.5 15.7956 3.5 15C3.5 14.2044 3.81607 13.4413 4.37868 12.8787C4.94129 12.3161 5.70435 12 6.5 12C7.29565 12 8.05871 12.3161 8.62132 12.8787C9.18393 13.4413 9.5 14.2044 9.5 15C9.5 15.7956 9.18393 16.5587 8.62132 17.1213C8.05871 17.6839 7.29565 18 6.5 18Z" fill="#1C2D59"/>
</svg>
