<svg width="20" height="20" viewBox="0 0 20 20" fill="none" xmlns="http://www.w3.org/2000/svg">
<path d="M5.83332 3.33332C5.83332 2.8913 6.00892 2.46737 6.32148 2.15481C6.63404 1.84225 7.05796 1.66666 7.49999 1.66666H12.5C12.942 1.66666 13.3659 1.84225 13.6785 2.15481C13.9911 2.46737 14.1667 2.8913 14.1667 3.33332V4.99999H17.5C17.721 4.99999 17.933 5.08779 18.0892 5.24407C18.2455 5.40035 18.3333 5.61231 18.3333 5.83332C18.3333 6.05434 18.2455 6.2663 18.0892 6.42258C17.933 6.57886 17.721 6.66666 17.5 6.66666H16.6092L15.8867 16.785C15.8567 17.2055 15.6686 17.599 15.3601 17.8863C15.0516 18.1736 14.6457 18.3333 14.2242 18.3333H5.77499C5.35344 18.3333 4.94755 18.1736 4.63906 17.8863C4.33058 17.599 4.14242 17.2055 4.11249 16.785L3.39166 6.66666H2.49999C2.27898 6.66666 2.06701 6.57886 1.91073 6.42258C1.75445 6.2663 1.66666 6.05434 1.66666 5.83332C1.66666 5.61231 1.75445 5.40035 1.91073 5.24407C2.06701 5.08779 2.27898 4.99999 2.49999 4.99999H5.83332V3.33332ZM7.49999 4.99999H12.5V3.33332H7.49999V4.99999ZM5.06166 6.66666L5.77582 16.6667H14.225L14.9392 6.66666H5.06166ZM8.33332 8.33332C8.55434 8.33332 8.7663 8.42112 8.92258 8.5774C9.07886 8.73368 9.16666 8.94564 9.16666 9.16666V14.1667C9.16666 14.3877 9.07886 14.5996 8.92258 14.7559C8.7663 14.9122 8.55434 15 8.33332 15C8.11231 15 7.90035 14.9122 7.74407 14.7559C7.58779 14.5996 7.49999 14.3877 7.49999 14.1667V9.16666C7.49999 8.94564 7.58779 8.73368 7.74407 8.5774C7.90035 8.42112 8.11231 8.33332 8.33332 8.33332V8.33332ZM11.6667 8.33332C11.8877 8.33332 12.0996 8.42112 12.2559 8.5774C12.4122 8.73368 12.5 8.94564 12.5 9.16666V14.1667C12.5 14.3877 12.4122 14.5996 12.2559 14.7559C12.0996 14.9122 11.8877 15 11.6667 15C11.4456 15 11.2337 14.9122 11.0774 14.7559C10.9211 14.5996 10.8333 14.3877 10.8333 14.1667V9.16666C10.8333 8.94564 10.9211 8.73368 11.0774 8.5774C11.2337 8.42112 11.4456 8.33332 11.6667 8.33332V8.33332Z" fill="#1C2D59"/>
</svg>
