<svg width="24" height="24" viewBox="0 0 24 24" fill="none" xmlns="http://www.w3.org/2000/svg">
<path d="M15.0013 11.9987C15.0017 12.2324 14.9203 12.4588 14.7713 12.6387L9.77125 18.6387C9.60151 18.843 9.3576 18.9714 9.09318 18.9958C8.82875 19.0201 8.56547 18.9385 8.36125 18.7687C8.15704 18.599 8.02861 18.3551 8.00423 18.0907C7.97985 17.8262 8.06151 17.563 8.23125 17.3587L12.7113 11.9987L8.39125 6.63875C8.30819 6.53646 8.24615 6.41876 8.20872 6.29242C8.17129 6.16609 8.1592 6.0336 8.17314 5.90257C8.18708 5.77154 8.22677 5.64456 8.28995 5.52892C8.35312 5.41328 8.43852 5.31127 8.54125 5.22875C8.64407 5.13717 8.7647 5.06781 8.89557 5.02502C9.02645 4.98222 9.16475 4.96692 9.30181 4.98006C9.43887 4.99321 9.57175 5.03451 9.6921 5.1014C9.81246 5.16828 9.91771 5.2593 10.0013 5.36875L14.8313 11.3687C14.9568 11.5538 15.0166 11.7756 15.0013 11.9987V11.9987Z" fill="#1C2D59"/>
</svg>
