<svg width="20" height="20" viewBox="0 0 20 20" fill="none" xmlns="http://www.w3.org/2000/svg">
<path d="M12.9254 10.4262C12.9258 10.621 12.8579 10.8097 12.7337 10.9596L8.56705 15.9596C8.4256 16.1298 8.22234 16.2368 8.00198 16.2571C7.78163 16.2774 7.56223 16.2094 7.39205 16.0679C7.22187 15.9265 7.11485 15.7232 7.09453 15.5028C7.07421 15.2825 7.14226 15.0631 7.28371 14.8929L11.017 10.4262L7.41705 5.95958C7.34783 5.87434 7.29613 5.77626 7.26494 5.67097C7.23375 5.56569 7.22367 5.45528 7.23528 5.34609C7.2469 5.2369 7.27998 5.13108 7.33263 5.03472C7.38527 4.93836 7.45644 4.85335 7.54205 4.78458C7.62773 4.70826 7.72825 4.65046 7.83731 4.6148C7.94638 4.57914 8.06163 4.56639 8.17585 4.57734C8.29007 4.58829 8.40079 4.62271 8.50109 4.67845C8.60139 4.73419 8.68909 4.81004 8.75871 4.90124L12.7837 9.90124C12.8883 10.0555 12.9382 10.2403 12.9254 10.4262V10.4262Z" fill="#98A0B3"/>
</svg>
