<svg width="24" height="24" viewBox="0 0 24 24" fill="none" xmlns="http://www.w3.org/2000/svg">
<path d="M15.3 11.1C15.0613 11.1 14.8324 11.0052 14.6636 10.8364C14.4948 10.6676 14.4 10.4387 14.4 10.2C14.4 9.96133 14.4948 9.73241 14.6636 9.56363C14.8324 9.39485 15.0613 9.30002 15.3 9.30002C15.5387 9.30002 15.7676 9.39485 15.9364 9.56363C16.1052 9.73241 16.2 9.96133 16.2 10.2C16.2 10.4387 16.1052 10.6676 15.9364 10.8364C15.7676 11.0052 15.5387 11.1 15.3 11.1ZM15.3 14.7C15.0613 14.7 14.8324 14.6052 14.6636 14.4364C14.4948 14.2676 14.4 14.0387 14.4 13.8C14.4 13.5613 14.4948 13.3324 14.6636 13.1636C14.8324 12.9948 15.0613 12.9 15.3 12.9C15.5387 12.9 15.7676 12.9948 15.9364 13.1636C16.1052 13.3324 16.2 13.5613 16.2 13.8C16.2 14.0387 16.1052 14.2676 15.9364 14.4364C15.7676 14.6052 15.5387 14.7 15.3 14.7ZM14.4 17.4C14.4 17.6387 14.4948 17.8676 14.6636 18.0364C14.8324 18.2052 15.0613 18.3 15.3 18.3C15.5387 18.3 15.7676 18.2052 15.9364 18.0364C16.1052 17.8676 16.2 17.6387 16.2 17.4C16.2 17.1613 16.1052 16.9324 15.9364 16.7636C15.7676 16.5948 15.5387 16.5 15.3 16.5C15.0613 16.5 14.8324 16.5948 14.6636 16.7636C14.4948 16.9324 14.4 17.1613 14.4 17.4ZM13.2 10.2C13.2 10.0409 13.1368 9.88828 13.0243 9.77576C12.9117 9.66324 12.7591 9.60002 12.6 9.60002H8.4C8.24087 9.60002 8.08826 9.66324 7.97574 9.77576C7.86322 9.88828 7.8 10.0409 7.8 10.2C7.8 10.3592 7.86322 10.5118 7.97574 10.6243C8.08826 10.7368 8.24087 10.8 8.4 10.8H12.6C12.7591 10.8 12.9117 10.7368 13.0243 10.6243C13.1368 10.5118 13.2 10.3592 13.2 10.2ZM13.2 13.8C13.2 13.6409 13.1368 13.4883 13.0243 13.3758C12.9117 13.2632 12.7591 13.2 12.6 13.2H8.4C8.24087 13.2 8.08826 13.2632 7.97574 13.3758C7.86322 13.4883 7.8 13.6409 7.8 13.8C7.8 13.9592 7.86322 14.1118 7.97574 14.2243C8.08826 14.3368 8.24087 14.4 8.4 14.4H12.6C12.7591 14.4 12.9117 14.3368 13.0243 14.2243C13.1368 14.1118 13.2 13.9592 13.2 13.8ZM13.2 17.4C13.2 17.2409 13.1368 17.0883 13.0243 16.9758C12.9117 16.8632 12.7591 16.8 12.6 16.8H8.4C8.24087 16.8 8.08826 16.8632 7.97574 16.9758C7.86322 17.0883 7.8 17.2409 7.8 17.4C7.8 17.5592 7.86322 17.7118 7.97574 17.8243C8.08826 17.9368 8.24087 18 8.4 18H12.6C12.7591 18 12.9117 17.9368 13.0243 17.8243C13.1368 17.7118 13.2 17.5592 13.2 17.4ZM10.2 2.40002C9.82761 2.39983 9.46433 2.51514 9.16021 2.73006C8.8561 2.94498 8.62613 3.24893 8.502 3.60002H6.6C6.12261 3.60002 5.66478 3.78967 5.32721 4.12723C4.98965 4.4648 4.8 4.92264 4.8 5.40002V19.8C4.8 20.2774 4.98965 20.7353 5.32721 21.0728C5.66478 21.4104 6.12261 21.6 6.6 21.6H17.4C17.8774 21.6 18.3352 21.4104 18.6728 21.0728C19.0104 20.7353 19.2 20.2774 19.2 19.8V5.40002C19.2 4.92264 19.0104 4.4648 18.6728 4.12723C18.3352 3.78967 17.8774 3.60002 17.4 3.60002H15.498C15.3739 3.24893 15.1439 2.94498 14.8398 2.73006C14.5357 2.51514 14.1724 2.39983 13.8 2.40002H10.2ZM9.6 4.20002C9.6 4.04089 9.66322 3.88828 9.77574 3.77576C9.88826 3.66324 10.0409 3.60002 10.2 3.60002H13.8C13.9591 3.60002 14.1117 3.66324 14.2243 3.77576C14.3368 3.88828 14.4 4.04089 14.4 4.20002C14.4 4.35915 14.3368 4.51177 14.2243 4.62429C14.1117 4.73681 13.9591 4.80002 13.8 4.80002H10.2C10.0409 4.80002 9.88826 4.73681 9.77574 4.62429C9.66322 4.51177 9.6 4.35915 9.6 4.20002ZM6.6 4.80002H8.502C8.62613 5.15112 8.8561 5.45507 9.16021 5.66999C9.46433 5.88491 9.82761 6.00022 10.2 6.00002H13.8C14.1724 6.00022 14.5357 5.88491 14.8398 5.66999C15.1439 5.45507 15.3739 5.15112 15.498 4.80002H17.4C17.5591 4.80002 17.7117 4.86324 17.8243 4.97576C17.9368 5.08828 18 5.24089 18 5.40002V19.8C18 19.9592 17.9368 20.1118 17.8243 20.2243C17.7117 20.3368 17.5591 20.4 17.4 20.4H6.6C6.44087 20.4 6.28826 20.3368 6.17574 20.2243C6.06322 20.1118 6 19.9592 6 19.8V5.40002C6 5.24089 6.06322 5.08828 6.17574 4.97576C6.28826 4.86324 6.44087 4.80002 6.6 4.80002V4.80002Z" fill="#1C2D59"/>
</svg>
