<svg width="20" height="20" viewBox="0 0 20 20" fill="none" xmlns="http://www.w3.org/2000/svg">
<path d="M10.0183 7.50089C10.2131 7.50051 10.4018 7.56832 10.5517 7.69256L15.5517 11.8592C15.7219 12.0007 15.8289 12.2039 15.8492 12.4243C15.8695 12.6446 15.8015 12.864 15.66 13.0342C15.5186 13.2044 15.3153 13.3114 15.0949 13.3317C14.8746 13.3521 14.6552 13.284 14.485 13.1426L10.0183 9.40922L5.55168 13.0092C5.46644 13.0784 5.36836 13.1301 5.26308 13.1613C5.15779 13.1925 5.04738 13.2026 4.93819 13.191C4.829 13.1794 4.72318 13.1463 4.62682 13.0936C4.53046 13.041 4.44545 12.9698 4.37668 12.8842C4.30036 12.7985 4.24256 12.698 4.2069 12.589C4.17124 12.4799 4.15849 12.3646 4.16944 12.2504C4.18039 12.1362 4.21482 12.0255 4.27055 11.9252C4.32629 11.8249 4.40214 11.7372 4.49335 11.6676L9.49335 7.64256C9.64758 7.53796 9.83243 7.48808 10.0183 7.50089Z" fill="#1C2D59"/>
</svg>
